<mxfile host="app.diagrams.net" modified="2023-05-27T13:30:47.008Z" agent="Mozilla/5.0 (Windows NT 10.0; Win64; x64) AppleWebKit/537.36 (KHTML, like Gecko) Chrome/113.0.0.0 Safari/537.36" version="21.3.4" etag="bD34Aa_S3GGuG578XioZ" type="github">
  <diagram name="Sayfa -1" id="jf2uL1GrSD7yV3nb5oAy">
    <mxGraphModel>
      <root>
        <mxCell id="0" />
        <mxCell id="1" parent="0" />
      </root>
    </mxGraphModel>
  </diagram>
</mxfile>
